<svg width="21" height="21" viewBox="0 0 21 21" fill="none" xmlns="http://www.w3.org/2000/svg">
<path d="M10.2825 11.8343L17.8163 4.30431L12.8513 18.1568L10.2825 11.8343ZM16.5413 3.03306L9.01125 10.5631L2.68875 7.99431L16.5413 3.03306ZM0.8175 9.17556L8.535 12.3106L11.67 20.0281C11.8688 20.5193 12.3488 20.8418 12.8813 20.8418C13.4325 20.8418 13.9238 20.4968 14.1113 19.9756L20.7863 1.34556C20.9175 0.978057 20.8238 0.573057 20.55 0.295557C20.2763 0.0180571 19.8675 -0.0719429 19.5 0.0593072L0.86625 6.73431C0.345 6.92181 0 7.41306 0 7.96431C0 8.49681 0.3225 8.97681 0.81375 9.17556H0.8175Z" fill="#74FD62"/>
</svg>