<svg width="36" height="36" viewBox="0 0 36 36" fill="none" xmlns="http://www.w3.org/2000/svg">
<path fill-rule="evenodd" clip-rule="evenodd" d="M19.9662 1.96429C19.9662 0.879442 19.0868 0 18.0019 0C16.9171 0 16.0376 0.879442 16.0376 1.96429V8.1324C16.0376 9.21726 16.9171 10.0967 18.0019 10.0967C19.0868 10.0967 19.9662 9.21726 19.9662 8.1324V1.96429ZM27.8708 1.67719C28.656 1.67719 29.3657 2.14477 29.6758 2.8662L35.844 17.2256C36.2719 18.2224 35.811 19.3775 34.8144 19.8057C33.8176 20.2338 32.6623 19.7729 32.2341 18.7761L27.8708 8.61836L23.5076 18.7761C23.0794 19.7729 21.9243 20.2338 20.9275 19.8057C19.9307 19.3775 19.4698 18.2224 19.898 17.2256L26.066 2.8662C26.3761 2.14477 27.0856 1.67719 27.8708 1.67719ZM8.13291 10.6581C8.93335 10.6581 9.65369 11.1438 9.95386 11.8858L16.122 27.1335C16.5288 28.1389 16.0434 29.2842 15.0377 29.691C14.032 30.0977 12.8869 29.6124 12.4801 28.6067L8.13291 17.8604L3.78574 28.6067C3.37892 29.6124 2.23386 30.0977 1.22818 29.691C0.222507 29.2842 -0.262955 28.1389 0.14387 27.1335L6.31199 11.8858C6.61216 11.1438 7.33251 10.6581 8.13291 10.6581Z" fill="#717880"/>
<path fill-rule="evenodd" clip-rule="evenodd" d="M32.384 3.75299C33.3716 3.30406 33.8085 2.13954 33.3596 1.15194C32.9107 0.164332 31.746 -0.272366 30.7583 0.176547L3.61871 12.5128C2.63112 12.9617 2.19442 14.1262 2.64333 15.1138C3.09223 16.1014 4.25677 16.5381 5.24438 16.0892L32.384 3.75299ZM21.7022 16.0372C20.6174 16.0372 19.738 16.9166 19.738 18.0015C19.738 20.1583 20.5948 22.2268 22.1199 23.752C23.645 25.2771 25.7135 26.1339 27.8703 26.1339C30.0271 26.1339 32.0956 25.2771 33.621 23.752C35.146 22.2268 36.0027 20.1583 36.0027 18.0015C36.0027 16.9166 35.1232 16.0372 34.0384 16.0372H21.7022ZM1.96429 25.9065C0.87944 25.9065 0 26.786 0 27.8708C0 30.0276 0.856806 32.0961 2.38192 33.6212C3.90705 35.1465 5.97557 36.0032 8.13241 36.0032C10.2892 36.0032 12.3578 35.1465 13.8829 33.6212C15.408 32.0961 16.2648 30.0276 16.2648 27.8708C16.2648 26.786 15.3854 25.9065 14.3005 25.9065H1.96429Z" fill="#C0C7D1"/>
</svg>