<svg width="28" height="28" viewBox="0 0 28 28" fill="none" xmlns="http://www.w3.org/2000/svg">
<path d="M18.6665 18.6673L22.1665 9.33398L25.6665 18.6673C24.6515 19.4257 23.4265 19.834 22.1665 19.834C20.9065 19.834 19.6815 19.4257 18.6665 18.6673Z" stroke="#4A5565" stroke-width="2.33333" stroke-linecap="round" stroke-linejoin="round"/>
<path d="M2.3335 18.6673L5.8335 9.33398L9.3335 18.6673C8.3185 19.4257 7.0935 19.834 5.8335 19.834C4.5735 19.834 3.3485 19.4257 2.3335 18.6673Z" stroke="#4A5565" stroke-width="2.33333" stroke-linecap="round" stroke-linejoin="round"/>
<path d="M8.1665 24.5H19.8332" stroke="#4A5565" stroke-width="2.33333" stroke-linecap="round" stroke-linejoin="round"/>
<path d="M14 3.5V24.5" stroke="#4A5565" stroke-width="2.33333" stroke-linecap="round" stroke-linejoin="round"/>
<path d="M3.5 8.16732H5.83333C8.16667 8.16732 11.6667 7.00065 14 5.83398C16.3333 7.00065 19.8333 8.16732 22.1667 8.16732H24.5" stroke="#4A5565" stroke-width="2.33333" stroke-linecap="round" stroke-linejoin="round"/>
</svg>