<svg width="170" height="43" viewBox="0 0 170 43" fill="none" xmlns="http://www.w3.org/2000/svg">
<path d="M51.2204 11.0429C49.5769 10.1246 47.7286 9.66416 45.6781 9.66416C45.0768 9.66416 44.4233 9.71765 43.7163 9.8233C41.5589 10.1416 39.6323 10.8838 37.9366 12.0512C36.2396 13.2173 34.9052 14.7734 33.9322 16.7183C32.9591 18.6631 32.4739 20.9079 32.4739 23.4528C32.4739 25.9976 32.9591 28.172 33.9322 29.976C34.9039 31.7786 36.2383 33.1496 37.9366 34.0861C39.6336 35.0226 41.5602 35.4909 43.7163 35.4909C46.0499 35.4909 48.1969 34.9509 50.16 33.8735C52.1218 32.7961 53.6779 31.2217 54.8271 29.1542C55.9762 27.0855 56.5501 24.6202 56.5501 21.7571C56.5501 19.1418 56.0727 16.9309 55.1179 15.1282C54.1631 13.3256 52.864 11.9651 51.2204 11.0455V11.0429ZM47.4821 27.2694C46.4216 28.472 45.0951 29.072 43.505 29.072C42.0911 29.072 40.9328 28.5412 40.0315 27.4807C39.1301 26.4202 38.6788 24.9359 38.6788 23.0262C38.6788 20.9405 39.2175 19.2788 40.2962 18.0409C41.3737 16.8043 42.7094 16.1848 44.2994 16.1848C45.6781 16.1848 46.8182 16.7156 47.7195 17.7761C48.6208 18.8366 49.0721 20.3392 49.0721 22.284C49.0721 24.405 48.5412 26.0681 47.4808 27.2694H47.4821Z" fill="black"/>
<path d="M78.8851 11.2203C77.3342 10.199 75.5719 9.68764 73.5997 9.68764C73.3167 9.68764 72.8236 9.72285 72.1192 9.79329C70.9557 9.93416 69.8013 10.3842 68.6574 11.1407C67.5122 11.8986 66.5691 12.8051 65.8295 13.863V10.9033L59.4863 11.6964V42.0363H62.922C63.7321 42.0363 64.4195 41.7532 64.983 41.1911C65.5465 40.6276 65.8282 39.9402 65.8282 39.1301V31.9417C66.7087 32.8926 67.7391 33.6596 68.9209 34.2413C70.1014 34.8231 71.2205 35.0957 72.2771 35.0605C74.4971 34.99 76.4798 34.347 78.2237 33.1313C79.9677 31.9156 81.3243 30.2864 82.2934 28.2425C83.2626 26.1998 83.7465 23.9615 83.7465 21.5301C83.7465 19.2748 83.3239 17.2491 82.4773 15.4517C81.6321 13.6543 80.4334 12.2455 78.8825 11.2229L78.8851 11.2203ZM75.0254 26.4972C74.038 27.6255 72.4701 28.2594 70.3205 28.4003C69.4387 28.4355 68.6026 28.2946 67.8096 27.9777C67.8017 27.9751 67.7939 27.9712 67.7861 27.9685C66.5965 27.4872 65.8282 26.3185 65.8282 25.0337V20.9301C65.8282 19.5344 66.5691 18.2353 67.7861 17.5518C67.7939 17.5478 67.8017 17.5426 67.8096 17.5387C68.6026 17.0991 69.4387 16.8435 70.3205 16.7717C70.567 16.7365 70.9192 16.7183 71.377 16.7183C73.1393 16.7183 74.4332 17.2035 75.2615 18.1713C76.0885 19.1405 76.5033 20.4527 76.5033 22.1093C76.5033 23.9067 76.0089 25.3689 75.0228 26.4959L75.0254 26.4972Z" fill="black"/>
<path d="M105.491 11.2203C103.94 10.199 102.177 9.68764 100.205 9.68764C99.9221 9.68764 99.4291 9.72285 98.7247 9.79329C97.5612 9.93416 96.4068 10.3842 95.2629 11.1407C94.1176 11.8986 93.1746 12.8051 92.435 13.863V10.9033L86.0918 11.6964V42.0363H89.5275C90.3375 42.0363 91.0249 41.7532 91.5884 41.1911C92.1519 40.6276 92.4337 39.9402 92.4337 39.1301V31.9417C93.3141 32.8926 94.3446 33.6596 95.5264 34.2413C96.7068 34.8231 97.826 35.0957 98.8825 35.0605C101.103 34.99 103.085 34.347 104.829 33.1313C106.573 31.9156 107.93 30.2864 108.899 28.2425C109.868 26.1998 110.352 23.9615 110.352 21.5301C110.352 19.2748 109.929 17.2491 109.083 15.4517C108.238 13.6543 107.039 12.2455 105.488 11.2229L105.491 11.2203ZM101.632 26.4972C100.645 27.6255 99.0769 28.2594 96.9273 28.4003C96.0455 28.4355 95.2094 28.2946 94.4163 27.9777C94.4085 27.9751 94.4007 27.9712 94.3928 27.9685C93.2032 27.4872 92.435 26.3185 92.435 25.0337V20.9301C92.435 19.5344 93.1759 18.2353 94.3928 17.5518C94.4007 17.5478 94.4085 17.5426 94.4163 17.5387C95.2094 17.0991 96.0455 16.8435 96.9273 16.7717C97.1738 16.7365 97.526 16.7183 97.9838 16.7183C99.746 16.7183 101.04 17.2035 101.868 18.1713C102.695 19.1405 103.11 20.4527 103.11 22.1093C103.11 23.9067 102.616 25.3689 101.63 26.4959L101.632 26.4972Z" fill="black"/>
<path d="M113.132 35.3774H116.303C117.324 35.3774 118.187 35.0161 118.893 34.2935C119.597 33.5722 119.95 32.7165 119.95 31.7304V9.68895L113.132 10.6933V35.3774Z" fill="black"/>
<path d="M117.359 0.00130565C116.055 0.00130565 114.893 0.547849 113.87 1.63962C112.847 2.73269 112.337 3.94837 112.337 5.28666C112.337 6.3093 112.662 6.89365 113.316 7.5628C113.968 8.23325 114.769 8.56718 115.721 8.56718C117.059 8.56718 118.24 8.0389 119.262 6.98105C120.284 5.9245 120.795 4.9697 120.795 3.59488C120.795 2.53833 120.469 1.67482 119.817 1.00437C119.164 0.33522 118.345 0 117.359 0V0.00130565Z" fill="black"/>
<path d="M137.646 9.63546C137.083 9.63546 136.483 9.68894 135.849 9.79459C132.889 10.2524 130.58 11.6807 128.924 14.0756V11.2216L122.74 12.1203V35.3774H128.924V21.9514C129.17 20.2949 129.856 18.9566 130.985 17.9339C132.112 16.9126 133.346 16.4013 134.685 16.4013C136.025 16.4013 137.019 16.9296 137.778 17.9874C138.536 19.044 138.914 20.5597 138.914 22.5332V35.3774H142.878C143.794 35.3774 144.57 35.0513 145.204 34.3991C145.838 33.7469 146.155 32.9813 146.155 32.0995V22.0036C146.155 17.9861 145.432 14.9208 143.988 12.8064C142.543 10.692 140.428 9.63546 137.645 9.63546H137.646Z" fill="black"/>
<path d="M163.665 10.4807V13.1834C163.042 12.4999 162.282 11.9481 161.382 11.5294C160.481 11.1094 159.565 10.9007 158.632 10.9007C158.322 10.9007 158.088 10.9164 157.933 10.9477C156.099 11.1655 154.477 11.8334 153.064 12.9512C151.65 14.0691 150.322 15.3226 149.546 17.0313C148.769 18.7401 148.613 19.8736 148.613 21.8301C148.613 23.7867 148.993 25.558 149.755 27.1416C150.515 28.7264 151.587 29.9538 152.97 30.8225C154.351 31.6913 155.96 32.0813 157.792 31.9873C158.755 31.956 159.765 31.6456 160.821 31.056C161.876 30.4664 162.825 29.689 163.663 28.7264V31.3365C163.663 32.2365 163.361 33.2004 162.754 34.2257C162.149 35.2509 161.364 35.9187 160.401 36.2292C160.122 36.3218 159.81 36.3688 159.47 36.3688C158.476 36.3688 157.14 35.9501 155.463 35.11C154.872 34.7996 154.251 34.6444 153.599 34.6444C152.667 34.6444 151.937 34.9548 151.409 35.5757L149.871 37.3457C150.896 38.5875 152.277 39.691 154.017 40.6537C155.756 41.6163 157.574 42.0976 159.47 42.0976C160.401 42.0976 161.302 41.958 162.172 41.6789C164.533 40.9641 166.429 39.5971 167.857 37.5779C169.285 35.5587 170 33.3843 170 31.0547V9.68764L163.663 10.4794L163.665 10.4807ZM163.665 22.1745C163.665 23.5871 162.855 24.885 161.57 25.4746C161.561 25.4785 161.553 25.4824 161.544 25.4863C160.689 25.875 159.796 26.0694 158.865 26.0694C157.248 26.0694 156.076 25.6428 155.347 24.7885C154.616 23.9341 154.251 22.7928 154.251 21.3632C154.251 19.8409 154.671 18.5835 155.51 17.5883C156.348 16.5943 157.684 16.0035 159.517 15.8182C160.324 15.7256 161.092 15.8026 161.823 16.0517C161.831 16.0543 161.837 16.0569 161.845 16.0595C162.939 16.4378 163.663 17.4813 163.663 18.6396V22.1758L163.665 22.1745Z" fill="black"/>
<path d="M29.539 31.3391C29.539 32.393 29.1725 33.2878 28.4381 34.0222C27.7038 34.7565 26.8089 35.1231 25.755 35.1231H20.6718V20.4384L7.6815 21.1166V35.1231H0V4.941L7.6815 4.03705V14.5647L20.6718 13.6047V1.07481L29.539 0.00130565V31.3391Z" fill="black"/>
</svg>