<svg width="37" height="34" viewBox="0 0 37 34" fill="none" xmlns="http://www.w3.org/2000/svg">
<path fill-rule="evenodd" clip-rule="evenodd" d="M30.1389 0H1.045C0.4675 0 0 0.4675 0 1.045V27.9367C0 30.976 2.464 33.44 5.5033 33.44L31.1839 33.341V1.045C31.1839 0.4675 30.7164 0 30.1389 0Z" fill="#E5E9EE"/>
<path fill-rule="evenodd" clip-rule="evenodd" d="M5.50391 33.4398C8.54321 33.4398 11.0072 30.9758 11.0072 27.9365H36.426C36.426 30.9758 33.962 33.4398 30.9227 33.4398H5.50391Z" fill="#C0C7D1"/>
<path fill-rule="evenodd" clip-rule="evenodd" d="M11.0059 27.9369V26.2066C11.0059 25.6291 11.4734 25.1616 12.0509 25.1616H35.3797C35.9572 25.1616 36.4247 25.6291 36.4247 26.2066V27.9369H11.0059Z" fill="#C0C7D1"/>
<path d="M28.1123 19.3037C28.5265 19.3038 28.8623 19.6395 28.8623 20.0537C28.8621 20.4677 28.5263 20.8036 28.1123 20.8037H4.2793C3.8652 20.8037 3.52949 20.4678 3.5293 20.0537C3.5293 19.6395 3.86508 19.3037 4.2793 19.3037H28.1123ZM28.1123 11.9697C28.5264 11.9698 28.8621 12.3057 28.8623 12.7197C28.8623 13.1339 28.5265 13.4697 28.1123 13.4697H4.2793C3.86508 13.4697 3.5293 13.1339 3.5293 12.7197C3.52946 12.3057 3.86518 11.9697 4.2793 11.9697H28.1123ZM28.1123 4.63672C28.5265 4.63678 28.8623 4.97255 28.8623 5.38672C28.8623 5.80088 28.5265 6.13665 28.1123 6.13672H4.2793C3.86509 6.13672 3.52931 5.80092 3.5293 5.38672C3.5293 4.97251 3.86508 4.63672 4.2793 4.63672H28.1123Z" fill="#717880"/>
</svg>