<svg width="39" height="39" viewBox="0 0 39 39" fill="none" xmlns="http://www.w3.org/2000/svg">
<path d="M19.25 38.5005C29.8815 38.5005 38.5 29.882 38.5 19.2505C38.5 8.61901 29.8815 0.000488281 19.25 0.000488281C8.61852 0.000488281 0 8.61901 0 19.2505C0 29.882 8.61852 38.5005 19.25 38.5005Z" fill="#717880"/>
<path d="M5.29297 32.2568C9.87659 34.089 19.043 27.6742 19.043 33.1738C19.0429 34.3206 18.8004 36.2233 18.3057 38.4766C13.0087 38.2206 8.27403 35.824 4.94727 32.1328C5.05874 32.1683 5.17431 32.2094 5.29297 32.2568ZM28.209 20.3398C32.7919 19.4229 31.8758 12.0906 36.459 13.9238C36.8833 14.0935 37.3469 14.1921 37.8389 14.2363C38.269 15.835 38.5 17.5155 38.5 19.25C38.5 26.2621 34.7507 32.3982 29.1475 35.7637C28.0665 34.2572 27.3845 32.5766 28.209 31.3398C30.042 28.5898 23.626 21.2566 28.209 20.3398ZM19.25 0C19.9356 0 20.6132 0.0365285 21.2803 0.106445C21.4664 0.849186 21.4254 1.55789 21.0234 2.16113C19.1903 4.91104 25.6054 12.2439 21.0234 13.1611C16.4403 14.0778 17.356 21.4104 12.7734 19.5781C9.12681 18.1195 2.57882 21.8818 0.0546875 20.7109C0.0185151 20.2288 0 19.7414 0 19.25C0.000153949 8.61876 8.61876 0.00017594 19.25 0Z" fill="#B7BEC6"/>
</svg>