<svg width="106" height="38" viewBox="0 0 106 38" fill="none" xmlns="http://www.w3.org/2000/svg">
<g clip-path="url(#clip0_543_1378)">
<path d="M33.4869 10.7099C32.4882 10.1519 31.3652 9.87215 30.1193 9.87215C29.7539 9.87215 29.3568 9.90465 28.9272 9.96885C27.6163 10.1622 26.4457 10.6132 25.4154 11.3226C24.3842 12.0311 23.5734 12.9766 22.9822 14.1584C22.3909 15.3401 22.0961 16.7041 22.0961 18.2504C22.0961 19.7967 22.3909 21.1179 22.9822 22.214C23.5726 23.3094 24.3834 24.1424 25.4154 24.7114C26.4465 25.2805 27.6171 25.565 28.9272 25.565C30.3451 25.565 31.6497 25.2369 32.8425 24.5822C34.0346 23.9276 34.9801 22.9709 35.6783 21.7147C36.3766 20.4577 36.7253 18.9598 36.7253 17.2201C36.7253 15.631 36.4352 14.2876 35.8551 13.1922C35.2749 12.0969 34.4855 11.2702 33.4869 10.7115V10.7099ZM31.2154 20.5695C30.571 21.3002 29.765 21.6648 28.7988 21.6648C27.9397 21.6648 27.2359 21.3422 26.6882 20.6979C26.1405 20.0535 25.8663 19.1516 25.8663 17.9912C25.8663 16.7239 26.1937 15.7142 26.8491 14.962C27.5038 14.2107 28.3154 13.8342 29.2815 13.8342C30.1193 13.8342 30.812 14.1568 31.3596 14.8011C31.9073 15.4455 32.1815 16.3585 32.1815 17.5403C32.1815 18.829 31.8589 19.8395 31.2146 20.5695H31.2154Z" fill="black"/>
<path d="M50.2965 10.8177C49.3541 10.1971 48.2834 9.88642 47.085 9.88642C46.913 9.88642 46.6134 9.90781 46.1854 9.95061C45.4785 10.0362 44.777 10.3096 44.082 10.7693C43.3861 11.2298 42.813 11.7807 42.3637 12.4234V10.6251L38.5094 11.107V29.5421H40.597C41.0892 29.5421 41.5069 29.3702 41.8493 29.0286C42.1917 28.6862 42.3629 28.2685 42.3629 27.7763V23.4084C42.8979 23.9862 43.524 24.4523 44.242 24.8057C44.9593 25.1592 45.6394 25.3249 46.2813 25.3035C47.6303 25.2607 48.835 24.8699 49.8947 24.1313C50.9543 23.3926 51.7786 22.4027 52.3675 21.1607C52.9563 19.9196 53.2504 18.5595 53.2504 17.0822C53.2504 15.7118 52.9936 14.4809 52.4792 13.3888C51.9656 12.2966 51.2373 11.4406 50.2949 10.8193L50.2965 10.8177ZM47.9513 20.1003C47.3513 20.7858 46.3986 21.171 45.0925 21.2566C44.5567 21.278 44.0487 21.1924 43.5668 20.9998C43.562 20.9982 43.5573 20.9959 43.5525 20.9943C42.8297 20.7018 42.3629 19.9917 42.3629 19.211V16.7176C42.3629 15.8695 42.813 15.0801 43.5525 14.6648C43.5573 14.6624 43.562 14.6593 43.5668 14.6569C44.0487 14.3898 44.5567 14.2344 45.0925 14.1909C45.2423 14.1695 45.4563 14.1584 45.7345 14.1584C46.8052 14.1584 47.5915 14.4532 48.0947 15.0413C48.5972 15.6302 48.8493 16.4275 48.8493 17.4341C48.8493 18.5262 48.5489 19.4147 47.9497 20.0995L47.9513 20.1003Z" fill="black"/>
<path d="M66.4625 10.8177C65.5202 10.1971 64.4494 9.88642 63.251 9.88642C63.0791 9.88642 62.7795 9.90781 62.3515 9.95061C61.6445 10.0362 60.9431 10.3096 60.248 10.7693C59.5521 11.2298 58.9791 11.7807 58.5297 12.4234V10.6251L54.6754 11.107V29.5421H56.7631C57.2553 29.5421 57.6729 29.3702 58.0153 29.0286C58.3577 28.6862 58.5289 28.2685 58.5289 27.7763V23.4084C59.0639 23.9862 59.69 24.4523 60.4081 24.8057C61.1254 25.1592 61.8054 25.3249 62.4474 25.3035C63.7963 25.2607 65.001 24.8699 66.0607 24.1313C67.1204 23.3926 67.9446 22.4027 68.5335 21.1607C69.1224 19.9196 69.4164 18.5595 69.4164 17.0822C69.4164 15.7118 69.1597 14.4809 68.6453 13.3888C68.1317 12.2966 67.4033 11.4406 66.461 10.8193L66.4625 10.8177ZM64.1181 20.1003C63.5181 20.7858 62.5655 21.171 61.2593 21.2566C60.7235 21.278 60.2155 21.1924 59.7336 20.9998C59.7289 20.9982 59.7241 20.9959 59.7193 20.9943C58.9965 20.7018 58.5297 19.9917 58.5297 19.211V16.7176C58.5297 15.8695 58.9799 15.0801 59.7193 14.6648C59.7241 14.6624 59.7289 14.6593 59.7336 14.6569C60.2155 14.3898 60.7235 14.2344 61.2593 14.1909C61.4091 14.1695 61.6231 14.1584 61.9013 14.1584C62.9721 14.1584 63.7583 14.4532 64.2616 15.0413C64.7641 15.6302 65.0161 16.4275 65.0161 17.4341C65.0161 18.5262 64.7157 19.4147 64.1165 20.0995L64.1181 20.1003Z" fill="black"/>
<path d="M71.1054 25.4961H73.0321C73.6527 25.4961 74.1774 25.2765 74.6062 24.8375C75.0342 24.3992 75.2482 23.8792 75.2482 23.2801V9.88721L71.1054 10.4975V25.4961Z" fill="black"/>
<path d="M73.6741 4.00079C72.8816 4.00079 72.1754 4.33288 71.554 4.99627C70.9326 5.66044 70.6227 6.39911 70.6227 7.21229C70.6227 7.83366 70.8201 8.18873 71.2172 8.59532C71.6134 9.0027 72.1001 9.2056 72.6787 9.2056C73.4918 9.2056 74.2091 8.88461 74.8305 8.24183C75.4511 7.59985 75.7618 7.0197 75.7618 6.18433C75.7618 5.54235 75.5636 5.01766 75.1673 4.61027C74.771 4.20369 74.2733 4 73.6741 4V4.00079Z" fill="black"/>
<path d="M86.001 9.85471C85.6586 9.85471 85.294 9.8872 84.9088 9.9514C83.1105 10.2296 81.7076 11.0975 80.701 12.5526V10.8185L76.9435 11.3646V25.4961H80.701V17.3382C80.8508 16.3316 81.2677 15.5184 81.9533 14.897C82.6381 14.2765 83.3879 13.9658 84.2018 13.9658C85.0158 13.9658 85.6197 14.2868 86.081 14.9295C86.5415 15.5715 86.7713 16.4925 86.7713 17.6916V25.4961H89.18C89.7364 25.4961 90.2079 25.2979 90.5931 24.9016C90.9783 24.5054 91.1709 24.0401 91.1709 23.5043V17.3699C91.1709 14.9287 90.7318 13.0662 89.8544 11.7815C88.9763 10.4967 87.6915 9.85471 86.0002 9.85471H86.001Z" fill="black"/>
<path d="M101.81 10.3683V12.0105C101.432 11.5952 100.97 11.2599 100.423 11.0055C99.8757 10.7503 99.3193 10.6235 98.7526 10.6235C98.564 10.6235 98.4221 10.633 98.3278 10.652C97.2134 10.7844 96.2275 11.1902 95.3691 11.8694C94.51 12.5487 93.7032 13.3103 93.2316 14.3486C92.7592 15.3869 92.6649 16.0756 92.6649 17.2644C92.6649 18.4533 92.8955 19.5296 93.3584 20.4918C93.8205 21.4548 94.4719 22.2006 95.3121 22.7284C96.1514 23.2563 97.1286 23.4932 98.2422 23.4362C98.8271 23.4172 99.4406 23.2285 100.083 22.8703C100.724 22.512 101.3 22.0397 101.81 21.4548V23.0407C101.81 23.5876 101.626 24.1733 101.257 24.7962C100.889 25.4192 100.412 25.825 99.8273 26.0136C99.6577 26.0699 99.4683 26.0984 99.2615 26.0984C98.6575 26.0984 97.8459 25.844 96.8267 25.3336C96.4676 25.145 96.0904 25.0506 95.6941 25.0506C95.1282 25.0506 94.6844 25.2393 94.3634 25.6165L93.4289 26.6921C94.0519 27.4466 94.8912 28.1171 95.9485 28.702C97.005 29.2869 98.1098 29.5794 99.2615 29.5794C99.8273 29.5794 100.375 29.4946 100.904 29.325C102.338 28.8907 103.49 28.06 104.358 26.8331C105.226 25.6062 105.66 24.285 105.66 22.8695V9.88642L101.81 10.3675L101.81 10.3683ZM101.81 17.4737C101.81 18.332 101.318 19.1206 100.537 19.4789C100.532 19.4813 100.527 19.4836 100.522 19.486C100.002 19.7222 99.4596 19.8403 98.8937 19.8403C97.9117 19.8403 97.1992 19.5811 96.7561 19.062C96.3123 18.5429 96.0904 17.8494 96.0904 16.9807C96.0904 16.0558 96.3456 15.2917 96.8552 14.687C97.3648 14.0831 98.1764 13.724 99.29 13.6115C99.7806 13.5552 100.247 13.602 100.691 13.7534C100.696 13.755 100.7 13.7565 100.705 13.7581C101.37 13.988 101.81 14.622 101.81 15.3258V17.4745L101.81 17.4737Z" fill="black"/>
<path d="M20.3128 23.0423C20.3128 23.6827 20.0901 24.2264 19.6439 24.6726C19.1976 25.1188 18.6539 25.3415 18.0135 25.3415H14.9249V16.4188L7.0317 16.8309V25.3415H2.36426V7.00225L7.0317 6.453V12.8498L14.9249 12.2665V4.65308L20.3128 4.00079V23.0423Z" fill="black"/>
</g>
<defs>
<clipPath id="clip0_543_1378">
<rect width="103.272" height="25.6" fill="white" transform="translate(2.36426 4)"/>
</clipPath>
</defs>
</svg>