<svg width="130" height="40" viewBox="0 0 130 40" fill="none" xmlns="http://www.w3.org/2000/svg">
<g clip-path="url(#clip0_406_4184)">
<path d="M40.5749 13.3874C39.3371 12.6899 37.9451 12.3402 36.4009 12.3402C35.948 12.3402 35.4558 12.3808 34.9234 12.4611C33.2986 12.7028 31.8477 13.2665 30.5706 14.1532C29.2926 15.0389 28.2876 16.2208 27.5548 17.698C26.822 19.1751 26.4565 20.8801 26.4565 22.813C26.4565 24.7459 26.822 26.3974 27.5548 27.7676C28.2867 29.1367 29.2916 30.178 30.5706 30.8893C31.8487 31.6006 33.2996 31.9563 34.9234 31.9563C36.6808 31.9563 38.2978 31.5461 39.7762 30.7278C41.2537 29.9095 42.4256 28.7137 43.2911 27.1434C44.1565 25.5721 44.5887 23.6997 44.5887 21.5251C44.5887 19.5387 44.2292 17.8594 43.5101 16.4903C42.791 15.1211 41.8126 14.0878 40.5749 13.3894V13.3874ZM37.7595 25.7118C36.9608 26.6253 35.9618 27.081 34.7643 27.081C33.6994 27.081 32.8271 26.6778 32.1483 25.8723C31.4695 25.0669 31.1296 23.9394 31.1296 22.489C31.1296 20.9049 31.5353 19.6427 32.3477 18.7025C33.1591 17.7634 34.165 17.2928 35.3625 17.2928C36.4009 17.2928 37.2594 17.696 37.9382 18.5014C38.617 19.3069 38.9569 20.4482 38.9569 21.9253C38.9569 23.5362 38.5571 24.7994 37.7585 25.7118H37.7595Z" fill="#74FD62"/>
<path d="M61.4095 13.5221C60.2415 12.7464 58.9143 12.358 57.429 12.358C57.2158 12.358 56.8445 12.3848 56.314 12.4383C55.4378 12.5453 54.5684 12.8871 53.7069 13.4617C52.8444 14.0373 52.1341 14.7258 51.5772 15.5293V13.2814L46.8 13.8837V36.9277H49.3875C49.9975 36.9277 50.5152 36.7127 50.9396 36.2857C51.364 35.8577 51.5762 35.3356 51.5762 34.7204V29.2606C52.2393 29.9828 53.0153 30.5653 53.9053 31.0072C54.7943 31.449 55.6372 31.6561 56.4329 31.6294C58.1049 31.5759 59.598 31.0874 60.9114 30.1641C62.2248 29.2407 63.2465 28.0033 63.9764 26.4509C64.7062 24.8994 65.0707 23.1994 65.0707 21.3527C65.0707 19.6398 64.7524 18.1012 64.1149 16.736C63.4783 15.3708 62.5755 14.3008 61.4075 13.5241L61.4095 13.5221ZM58.5027 25.1253C57.7591 25.9823 56.5783 26.4638 54.9594 26.5708C54.2953 26.5975 53.6656 26.4905 53.0684 26.2498C53.0625 26.2478 53.0566 26.2448 53.0507 26.2429C52.1548 25.8773 51.5762 24.9896 51.5762 24.0138V20.897C51.5762 19.8369 52.1341 18.8502 53.0507 18.331C53.0566 18.3281 53.0625 18.3241 53.0684 18.3211C53.6656 17.9872 54.2953 17.7931 54.9594 17.7386C55.1451 17.7118 55.4103 17.698 55.7551 17.698C57.0822 17.698 58.0567 18.0665 58.6805 18.8016C59.3033 19.5377 59.6157 20.5344 59.6157 21.7926C59.6157 23.1578 59.2434 24.2684 58.5007 25.1243L58.5027 25.1253Z" fill="#74FD62"/>
<path d="M81.4464 13.5221C80.2784 12.7464 78.9513 12.358 77.466 12.358C77.2528 12.358 76.8815 12.3848 76.351 12.4383C75.4748 12.5453 74.6054 12.8871 73.7439 13.4617C72.8814 14.0373 72.1711 14.7258 71.6141 15.5293V13.2814L66.837 13.8837V36.9277H69.4245C70.0345 36.9277 70.5522 36.7127 70.9766 36.2857C71.4009 35.8577 71.6131 35.3356 71.6131 34.7204V29.2606C72.2762 29.9828 73.0523 30.5653 73.9423 31.0072C74.8313 31.449 75.6742 31.6561 76.4699 31.6294C78.1418 31.5759 79.635 31.0874 80.9484 30.1641C82.2618 29.2407 83.2835 28.0033 84.0133 26.4509C84.7432 24.8994 85.1077 23.1994 85.1077 21.3527C85.1077 19.6398 84.7894 18.1012 84.1518 16.736C83.5153 15.3708 82.6125 14.3008 81.4445 13.5241L81.4464 13.5221ZM78.5407 25.1253C77.797 25.9823 76.6163 26.4638 74.9973 26.5708C74.3333 26.5975 73.7036 26.4905 73.1063 26.2498C73.1004 26.2478 73.0945 26.2448 73.0886 26.2429C72.1927 25.8773 71.6141 24.9896 71.6141 24.0138V20.897C71.6141 19.8369 72.1721 18.8502 73.0886 18.331C73.0945 18.3281 73.1004 18.3241 73.1063 18.3211C73.7036 17.9872 74.3333 17.7931 74.9973 17.7386C75.183 17.7118 75.4482 17.698 75.793 17.698C77.1202 17.698 78.0947 18.0665 78.7185 18.8016C79.3413 19.5377 79.6537 20.5344 79.6537 21.7926C79.6537 23.1578 79.2813 24.2684 78.5387 25.1243L78.5407 25.1253Z" fill="#74FD62"/>
<path d="M87.2011 31.8701H89.5891C90.3583 31.8701 91.0086 31.5957 91.5401 31.0468C92.0705 30.499 92.3358 29.849 92.3358 29.1001V12.359L87.2011 13.1219V31.8701Z" fill="#74FD62"/>
<path d="M90.3848 5.00099C89.4025 5.00099 88.5272 5.41611 87.7571 6.24533C86.9869 7.07555 86.6028 7.99889 86.6028 9.01536C86.6028 9.79208 86.8474 10.2359 87.3396 10.7441C87.8307 11.2534 88.4339 11.507 89.151 11.507C90.1589 11.507 91.0479 11.1058 91.8181 10.3023C92.5873 9.49982 92.9724 8.77462 92.9724 7.73041C92.9724 6.92793 92.7268 6.27207 92.2356 5.76284C91.7444 5.25461 91.1275 5 90.3848 5V5.00099Z" fill="#74FD62"/>
<path d="M105.663 12.3184C105.239 12.3184 104.787 12.359 104.31 12.4393C102.081 12.787 100.342 13.8718 99.0943 15.6908V13.5231L94.437 14.2057V31.8701H99.0943V21.6727C99.28 20.4145 99.7967 19.398 100.646 18.6213C101.495 17.8456 102.425 17.4572 103.433 17.4572C104.442 17.4572 105.191 17.8585 105.763 18.6619C106.333 19.4644 106.618 20.6156 106.618 22.1146V31.8701H109.604C110.293 31.8701 110.878 31.6224 111.355 31.1271C111.832 30.6317 112.071 30.0502 112.071 29.3804V21.7123C112.071 18.6609 111.527 16.3328 110.439 14.7268C109.351 13.1209 107.759 12.3184 105.662 12.3184H105.663Z" fill="#74FD62"/>
<path d="M125.258 12.9604V15.0131C124.79 14.494 124.217 14.0749 123.539 13.7569C122.86 13.4379 122.171 13.2794 121.468 13.2794C121.235 13.2794 121.059 13.2913 120.942 13.3151C119.561 13.4805 118.339 13.9877 117.275 14.8368C116.21 15.6858 115.21 16.6379 114.625 17.9357C114.04 19.2336 113.923 20.0945 113.923 21.5806C113.923 23.0666 114.209 24.412 114.782 25.6147C115.355 26.8184 116.163 27.7507 117.204 28.4105C118.244 29.0703 119.455 29.3666 120.836 29.2952C121.561 29.2715 122.321 29.0357 123.117 28.5879C123.911 28.1401 124.626 27.5496 125.257 26.8185V28.8009C125.257 29.4845 125.029 30.2166 124.573 30.9953C124.117 31.774 123.525 32.2812 122.8 32.517C122.59 32.5874 122.355 32.623 122.099 32.623C121.35 32.623 120.345 32.305 119.081 31.667C118.636 31.4312 118.169 31.3133 117.677 31.3133C116.976 31.3133 116.426 31.5491 116.028 32.0207L114.87 33.3651C115.642 34.3082 116.682 35.1464 117.993 35.8775C119.302 36.6087 120.672 36.9742 122.099 36.9742C122.8 36.9742 123.479 36.8682 124.134 36.6562C125.912 36.1133 127.34 35.075 128.415 33.5414C129.491 32.0078 130.029 30.3563 130.029 28.5869V12.358L125.257 12.9594L125.258 12.9604ZM125.258 21.8421C125.258 22.915 124.648 23.9008 123.681 24.3486C123.674 24.3516 123.668 24.3546 123.661 24.3575C123.017 24.6528 122.345 24.8004 121.643 24.8004C120.426 24.8004 119.543 24.4764 118.994 23.8275C118.444 23.1786 118.169 22.3117 118.169 21.2259C118.169 20.0697 118.485 19.1147 119.117 18.3588C119.748 17.6038 120.754 17.155 122.134 17.0144C122.742 16.944 123.321 17.0025 123.871 17.1917C123.877 17.1937 123.882 17.1957 123.888 17.1976C124.712 17.485 125.257 18.2775 125.257 19.1573V21.8431L125.258 21.8421Z" fill="#74FD62"/>
<path d="M24.2463 28.8029C24.2463 29.6033 23.9702 30.283 23.4172 30.8407C22.8641 31.3985 22.1902 31.6769 21.3965 31.6769H17.5683V20.5235L7.78505 21.0386V31.6769H2V8.75282L7.78505 8.06625V16.0623L17.5683 15.3331V5.81635L24.2463 5.00099V28.8029Z" fill="#74FD62"/>
</g>
<defs>
<clipPath id="clip0_406_4184">
<rect width="128" height="32" fill="white" transform="translate(2 5)"/>
</clipPath>
</defs>
</svg>
